<svg xmlns="http://www.w3.org/2000/svg" fill-rule="evenodd" viewBox="0 0 100 100">
    <path d="M86.43 58.34 69.59 45l.8-1.44a9.93 9.93 0 0 0 .57-7l8.42-8.42A6.67 6.67 0 1 0 84 16.64a6.67 6.67 0 1 0-11.4 4.67l-8.42 8.42a10.05 10.05 0 0 0-7.09.61l-3.47 1.92A31.5 31.5 0 1 0 33.5 88h43A16.52 16.52 0 0 0 93 71.5a16.35 16.35 0 0 0-6.57-13.16ZM75.92 22.23a1.5 1.5 0 0 0-.33-2.37 3.67 3.67 0 1 1 5.22-1.92 1.5 1.5 0 0 0 1.93 1.93 3.68 3.68 0 1 1-1.92 5.22 1.5 1.5 0 0 0-2.37-.33l-8.85 8.86a9.49 9.49 0 0 0-2.53-2.53ZM58.46 33a6.91 6.91 0 0 1 9.25 9.13l-1.38 2.49-9.9 17.87a13.33 13.33 0 1 1-18.3-18.26l16-8.88.12-.06Zm18 52h-.89a1.38 1.38 0 0 0-.46 0H33.5a28.5 28.5 0 1 1 17.25-51.14l-14.13 7.83A16.33 16.33 0 1 0 59 64.07l9.09-16.41 16.48 13.1A13.49 13.49 0 0 1 76.5 85Z"/>
    <path d="M11.5 53a2.5 2.5 0 1 0 0 5 2.5 2.5 0 1 0 0-5zm5-8a2.5 2.5 0 1 0 0 5 2.5 2.5 0 1 0 0-5zm5 8a2.5 2.5 0 1 0 0 5 2.5 2.5 0 1 0 0-5zm26 5a2.5 2.5 0 1 0 0 5 2.5 2.5 0 1 0 0-5z"/>
</svg>
